<svg width="33" height="48" viewBox="0 0 33 48" fill="none" xmlns="http://www.w3.org/2000/svg">
<path fill-rule="evenodd" clip-rule="evenodd" d="M27.8433 22.5605C30.4611 25.9707 31.9153 28.4668 31.9153 28.4668C31.0205 30.016 30.0186 31.6741 28.9106 33.4394C28.9106 33.4394 27.299 30.7671 24.4209 27.018C22.9702 25.1294 19.2542 20.9181 19.1977 20.8571C19.2003 20.9401 19.1952 39.2529 19.2067 40.9801L19.1969 40.9775C19.1973 40.9839 19.1973 40.9941 19.1973 41H13.1742C13.1862 39.2724 13.1807 20.9401 13.1836 20.8571C13.1272 20.9181 9.41077 25.1294 7.96042 27.018C5.08198 30.7671 3.47073 33.4394 3.47073 33.4394C2.36275 31.6741 1.36047 30.016 0.46561 28.4668C0.46561 28.4668 1.91982 25.9707 4.53806 22.5605C5.69354 21.0549 8.48853 17.9264 9.18781 17.149C7.20423 17.5095 5.3576 17.9785 3.98086 18.4305C2.65248 18.866 1.63651 19.296 0.971889 19.6044C0.338512 19.898 0 20.086 0 20.086C0.415546 18.4796 0.885868 17.0253 1.41996 15.7574C1.41996 15.7574 1.73751 15.5345 2.33365 15.1893C2.95547 14.8288 3.90467 14.3318 5.14532 13.8396C6.45658 13.3193 8.10122 12.8029 9.97867 12.4191C9.92518 12.3797 8.73631 11.4321 8.26855 11.1334C6.10566 9.75065 5.25403 10.1972 5.25403 10.1972C6.3312 9.42827 7.4182 8.80765 8.4958 8.36325C8.4958 8.36325 8.66356 8.26666 8.98795 8.18999C9.33374 8.1078 9.88495 8.06374 10.6056 8.201C11.4136 8.3552 13.7331 9.43081 13.7725 9.45284C13.7755 9.4181 13.8842 8.38613 13.9219 8.02096C14.034 6.95128 14.2715 7.01695 14.4611 7H17.9198C18.1099 7.01695 18.3469 6.95128 18.4591 8.02096C18.4972 8.38613 18.6059 9.4181 18.6089 9.45284C18.6478 9.43081 20.9673 8.3552 21.7753 8.201C22.4964 8.06374 23.0476 8.1078 23.393 8.18999C23.7174 8.26666 23.8856 8.36325 23.8856 8.36325C24.9627 8.80765 26.0497 9.42827 27.1269 10.1972C27.1269 10.1972 26.2757 9.75065 24.1124 11.1334C23.6446 11.4321 22.4562 12.3797 22.4027 12.4191C24.2801 12.8029 25.9244 13.3193 27.236 13.8396C28.4763 14.3318 29.4255 14.8288 30.0473 15.1893C30.6439 15.5345 30.961 15.7574 30.961 15.7574C31.4951 17.0253 31.9654 18.4796 32.381 20.086C32.381 20.086 32.0424 19.898 31.4095 19.6044C30.7444 19.296 29.7285 18.866 28.4001 18.4305C27.0238 17.9785 25.1767 17.5095 23.1931 17.149C23.8924 17.9264 26.6874 21.0549 27.8433 22.5605Z" fill="#25935F"/>
</svg>
